PathFileType	4	(X/Y/Z)	/Users/niels/Desktop/University/Third Semester/Perception and Action/Exam/Gymnastics Motion Tracking/Code for Gym Tracking/Scripts/Analyzed Data/Start Salto/st_salto_bad_id11_3_Sports2D/st_salto_bad_id11_3_Sports2D_px_person00.trc
DataRate	CameraRate	NumFrames	NumMarkers	Units	OrigDataRate	OrigDataStartFrame	OrigNumFrames
29.8051948051948	29.8051948051948	12	22	m	29.8051948051948	19	154
Frame#	Time	Hip			RHip			RKnee			RAnkle			RBigToe			RSmallToe			RHeel			LHip			LKnee			LAnkle			LBigToe			LSmallToe			LHeel			Neck			Head			Nose			RShoulder			RElbow			RWrist			LShoulder			LElbow			LWrist		
		X1	Y1	Z1	X2	Y2	Z2	X3	Y3	Z3	X4	Y4	Z4	X5	Y5	Z5	X6	Y6	Z6	X7	Y7	Z7	X8	Y8	Z8	X9	Y9	Z9	X10	Y10	Z10	X11	Y11	Z11	X12	Y12	Z12	X13	Y13	Z13	X14	Y14	Z14	X15	Y15	Z15	X16	Y16	Z16	X17	Y17	Z17	X18	Y18	Z18	X19	Y19	Z19	X20	Y20	Z20	X21	Y21	Z21	X22	Y22	Z22
19	0.6374727668845316	0.3824116622700891	-0.5655984309982455	0.0	0.3774784298979912	-0.5675736773486294	0.0	0.48294683194413696	-0.6720763400155773	0.0	0.5061235072240396	-0.8059714565789858	0.0	0.5643073581948003	-0.8122613973809032	0.0	0.5550152976849407	-0.8195208407003748	0.0	0.49750946718628675	-0.8223440603171385	0.0	0.39349446979852626	-0.5645369747990535	0.0	0.48625825621498225	-0.6719238918879218	0.0	0.5103568445826667	-0.8016135117435765	0.0	0.56670089382003	-0.8087474666831238	0.0	0.5609533798302977	-0.8067706101280584	0.0	0.5007296308692549	-0.8186022936551065	0.0	0.4251799762422966	-0.40578415316036986	0.0	0.43232852027336244	-0.3228377422963849	0.0	0.46444024770313763	-0.36019621922323297	0.0	0.4123323951968931	-0.4102590268971825	0.0	0.49716229393201544	-0.39385866647977696	0.0	0.559612248203482	-0.3407893382331029	0.0	0.44274376683190064	-0.4198986950490351	0.0	0.5306321646806196	-0.4166512800943926	0.0	0.5995346497119709	-0.37540056949833034	0.0
20	0.6710239651416122	0.4008405287035481	-0.5749698744516747	0.0	0.39683232659742784	-0.578225630484308	0.0	0.5035972506915215	-0.6797928333609264	0.0	0.5121296097483129	-0.8133910627518233	0.0	0.5668282660057018	-0.8224302838498191	0.0	0.5561123136884626	-0.8287336529866113	0.0	0.5014232724848903	-0.8283663668383978	0.0	0.4114683471699904	-0.5753283621625049	0.0	0.5053182567262486	-0.6801048802495822	0.0	0.5166423547199858	-0.8099086676641167	0.0	0.5715094341059743	-0.8192706232529854	0.0	0.5645618442438911	-0.8169301352365373	0.0	0.5037163669454179	-0.824847433018401	0.0	0.44602609191318027	-0.4133843331103291	0.0	0.4506348282702948	-0.3321297774298557	0.0	0.48546034226545	-0.3664737110758795	0.0	0.4340496703911808	-0.4170635387738339	0.0	0.5174037315559933	-0.39182447684648036	0.0	0.5736655223772426	-0.334302717741338	0.0	0.46569165060648227	-0.42740175797706403	0.0	0.5495467502853896	-0.4158663884732679	0.0	0.6128396198740699	-0.3673980144584663	0.0
21	0.7045751633986929	0.4174448127437858	-0.5819962980557913	0.0	0.41396354166865673	-0.5862139855238456	0.0	0.5221282262973448	-0.6854118008661146	0.0	0.515254960084391	-0.8185102749987824	0.0	0.5661558185276404	-0.8301664330618976	0.0	0.5541870952652408	-0.8354763554622455	0.0	0.5027305302986051	-0.8323581875620786	0.0	0.42778661555623704	-0.5835142728764753	0.0	0.5227897010641714	-0.6860190147152437	0.0	0.5202707314159153	-0.8155283835834499	0.0	0.5730476017827082	-0.8270521346052031	0.0	0.5652030249478132	-0.8245570469550821	0.0	0.5044686352170751	-0.8287013563899869	0.0	0.46506684229543516	-0.41904212219584946	0.0	0.46869629282036346	-0.33918688348127435	0.0	0.5051042655301619	-0.37174857060447253	0.0	0.45361577336074216	-0.4221730839663237	0.0	0.5356729174785941	-0.391395307392465	0.0	0.5876633644547046	-0.3317862751543383	0.0	0.48665652422012295	-0.4333632686641133	0.0	0.5667642420024288	-0.41587851295612716	0.0	0.6249388829013826	-0.3626355650331799	0.0
22	0.7381263616557734	0.4323741934204441	-0.5863660716935413	0.0	0.4291834507897057	-0.5911176555016283	0.0	0.5382351151755693	-0.688839247287335	0.0	0.5170009444420132	-0.8210146763888139	0.0	0.5646219646965759	-0.8350646151385666	0.0	0.552020529066431	-0.8394464291219214	0.0	0.5031557229582215	-0.8341894908972675	0.0	0.4422501354995625	-0.5886822831727102	0.0	0.5381787390692226	-0.689524891042382	0.0	0.5222242698806677	-0.8182374474441052	0.0	0.5727514042776438	-0.831698824398871	0.0	0.5643751251010696	-0.8293016839576872	0.0	0.5042863211752335	-0.8302203599707172	0.0	0.48261282655743165	-0.42283846639855116	0.0	0.4871427392665379	-0.3440547510180666	0.0	0.5235850590501913	-0.37626248037455917	0.0	0.47161659048829646	-0.4255443708819421	0.0	0.5533913598095905	-0.39226334795579265	0.0	0.6035214407613823	-0.3323978547360915	0.0	0.5051570649041272	-0.4373753869122787	0.0	0.5826677739124274	-0.416634879700962	0.0	0.6370616278609986	-0.36078296384014524	0.0
23	0.771677559912854	0.4459998296118816	-0.5881686156967568	0.0	0.44309106361137957	-0.5931258217408487	0.0	0.5519541095731573	-0.6903882700705072	0.0	0.5183727349963606	-0.8211268456635692	0.0	0.5637778453032971	-0.8374355897135562	0.0	0.5512079829379722	-0.8410066788386225	0.0	0.503632703160682	-0.8340561995989975	0.0	0.4549824000058705	-0.5909724964850117	0.0	0.5512461661531033	-0.6909839980867306	0.0	0.5232290599539132	-0.8184028694671552	0.0	0.571796125694916	-0.8337046122321623	0.0	0.5631431686047721	-0.8315912703459631	0.0	0.5040284096755782	-0.8297963894287808	0.0	0.49914624728785595	-0.4248943137672109	0.0	0.5064971706955707	-0.3470506026690203	0.0	0.5412842942083774	-0.380178542653489	0.0	0.4887851307209089	-0.42717972151427147	0.0	0.571504351418762	-0.3940012553336353	0.0	0.6222653506542104	-0.33539583068869794	0.0	0.5212886435204009	-0.4391949600666275	0.0	0.5976415773159723	-0.4178749796427455	0.0	0.6501796307334184	-0.3612197857412454	0.0
24	0.8052287581699347	0.45864812971638996	-0.5876674691565558	0.0	0.45617208675003545	-0.5926695654041751	0.0	0.5633938328535876	-0.6905750946336148	0.0	0.5197974687167081	-0.8194688595517372	0.0	0.564114302624175	-0.8379898258949354	0.0	0.5519199902525467	-0.8408904595394915	0.0	0.5043326366146607	-0.8324142343836274	0.0	0.46619220307976916	-0.590767021970873	0.0	0.5618905224385629	-0.690956578288903	0.0	0.5237864475106143	-0.8167851294373596	0.0	0.5708994635069078	-0.8340173287110089	0.0	0.5621014700747756	-0.8322653543029234	0.0	0.5040518502306983	-0.8280256287256332	0.0	0.5149617989608247	-0.4252869124966229	0.0	0.5268804331746773	-0.34855568392048714	0.0	0.5584677231177494	-0.3834946134090778	0.0	0.5055317858407935	-0.4271720478761654	0.0	0.5902289461685892	-0.396265173610613	0.0	0.6438337992234602	-0.34019036155738214	0.0	0.5352609362338276	-0.4388045315424285	0.0	0.6118608523036145	-0.41913188541229024	0.0	0.6647303798443035	-0.3632506674062364	0.0
25	0.8387799564270153	0.4704208958957292	-0.5852369307757345	0.0	0.4685576213658621	-0.5901824141245462	0.0	0.5726003257608198	-0.6899194336455995	0.0	0.5212805773996161	-0.8168251806990615	0.0	0.5652650878165811	-0.8375057622127834	0.0	0.5533806979092875	-0.8399069872530237	0.0	0.5049915332760878	-0.8298513272702145	0.0	0.4760543290886161	-0.5884878177670779	0.0	0.5700858569018536	-0.6899524346251809	0.0	0.524242337728567	-0.8142210374843656	0.0	0.5703568852932499	-0.8334694585916681	0.0	0.561516017796052	-0.8320082107757798	0.0	0.5042665610697081	-0.82550106732712	0.0	0.5300646278350222	-0.4241820079677942	0.0	0.5478648266783999	-0.34887204784041215	0.0	0.5751304372249355	-0.38607031547324916	0.0	0.5217871244492481	-0.4258075091993284	0.0	0.6092328946282313	-0.3989210383664322	0.0	0.6672732169551335	-0.34633171305271926	0.0	0.5471559698840209	-0.4364832890166238	0.0	0.625278599143479	-0.41993790843676543	0.0	0.6805232806495268	-0.36627173220355663	0.0
26	0.8723311546840959	0.4811794516768813	-0.5813569151455319	0.0	0.48001478572736217	-0.5860334872600678	0.0	0.5795812546016733	-0.6887891210293311	0.0	0.5226532580031039	-0.8139262875301444	0.0	0.5665025432595868	-0.8365970199331497	0.0	0.5546362547195953	-0.838718322350889	0.0	0.5053145220632779	-0.8269628695895234	0.0	0.4846862108293207	-0.5845101107789372	0.0	0.575933305288682	-0.6883532882435821	0.0	0.5248074407443434	-0.8113601878407697	0.0	0.5701801089803572	-0.832487595595528	0.0	0.5614264453113329	-0.8310700300698076	0.0	0.5044011147151557	-0.8226578908747639	0.0	0.5442360187724213	-0.42194644864973685	0.0	0.5685980381963774	-0.3481768421541657	0.0	0.5909692515937948	-0.3876860332388664	0.0	0.5372071003306363	-0.42351332209752207	0.0	0.6278172929646049	-0.401940243577343	0.0	0.6910463546164185	-0.3534448454315846	0.0	0.5569749424049396	-0.43274182655233656	0.0	0.6377702178497077	-0.42012900827620275	0.0	0.6968867057602415	-0.36988207583218324	0.0
27	0.9058823529411765	0.4907106451222022	-0.5765003298280504	0.0	0.49017759020660906	-0.5805459384157806	0.0	0.5843909301447757	-0.6873609576520441	0.0	0.523791790440771	-0.8113027432613388	0.0	0.5672476112605117	-0.8356234706939061	0.0	0.5551711579688909	-0.8377092282785282	0.0	0.5052586223474593	-0.8242800619190153	0.0	0.4921755656122463	-0.579146825256076	0.0	0.5796789645475628	-0.6864536693081837	0.0	0.5255571336774802	-0.8085770436361841	0.0	0.5703276730982144	-0.8312179510465952	0.0	0.5617567366864415	-0.8294989601107611	0.0	0.5043221204974655	-0.8197771141567215	0.0	0.5572187776364597	-0.4189963557069886	0.0	0.588202897527963	-0.34658938837197945	0.0	0.6055827013922218	-0.3881236172678657	0.0	0.5514842331254741	-0.42064157508352756	0.0	0.6450641615171502	-0.4052423549480948	0.0	0.7134529328428443	-0.3612228342607707	0.0	0.5648756241481027	-0.42810738252472813	0.0	0.649239323568505	-0.41990983257949926	0.0	0.7129872906505672	-0.37395134016039067	0.0
28	0.9394335511982571	0.4989926097620127	-0.571022110286232	0.0	0.49892402360148835	-0.574081658547919	0.0	0.5872500293054262	-0.685691878937807	0.0	0.5247111108077248	-0.8092029399275515	0.0	0.5673078795255588	-0.8347127439709482	0.0	0.5550291279156181	-0.8369734641860542	0.0	0.5050403886962882	-0.8221740147897677	0.0	0.4986911010346361	-0.5727254558055052	0.0	0.5816801625783687	-0.684485529145435	0.0	0.5264477087133723	-0.8060177445749019	0.0	0.57084044012157	-0.8297436580286905	0.0	0.5624253689954588	-0.8274212158023969	0.0	0.5041236333617953	-0.8170274206977327	0.0	0.5689480774628755	-0.4155476627794697	0.0	0.6062442397492074	-0.3442825566924719	0.0	0.618817803875172	-0.38730329661224366	0.0	0.5645316474976554	-0.4173522425308545	0.0	0.660170933508027	-0.40867796229947356	0.0	0.7331799612377048	-0.3695313123194805	0.0	0.5713822639990084	-0.42295899384984537	0.0	0.6596461340004509	-0.41961691118834726	0.0	0.7281059003595973	-0.37861213600554033	0.0
29	0.9729847494553377	0.5062622412771434	-0.5651854309692489	0.0	0.5065197204440312	-0.5670989336992232	0.0	0.5885594259741915	-0.68376821473499	0.0	0.5254965534410315	-0.8075621279099818	0.0	0.5668325554611876	-0.8338230532191118	0.0	0.5545480796631116	-0.8363852409799695	0.0	0.5049257790590834	-0.8207238958428368	0.0	0.5045355551208468	-0.5656865044464408	0.0	0.5823372839645534	-0.6825570064450596	0.0	0.5273410480835165	-0.803666356356325	0.0	0.5717417000108975	-0.8281258344596306	0.0	0.5633436078229414	-0.8250332414033361	0.0	0.5039521008348055	-0.8144463624668743	0.0	0.5795614725023311	-0.41161546561684426	0.0	0.6227907849268912	-0.34155351852199106	0.0	0.6308515709668369	-0.3854112019701696	0.0	0.5764658381092393	-0.4137225209298065	0.0	0.6727735597160039	-0.41207088066114567	0.0	0.7496055144003487	-0.37836042039044343	0.0	0.5772477135738581	-0.4175508531325882	0.0	0.6689723855405977	-0.41952389282766345	0.0	0.7416713737385777	-0.38416614526810955	0.0
30	1.0065359477124183	0.5128610855483522	-0.5592356484994668	0.0	0.5134187767182923	-0.5600670991299277	0.0	0.5887770057033679	-0.6815027396943028	0.0	0.5262354966996555	-0.8060572994622079	0.0	0.5661914829612803	-0.832822972706793	0.0	0.5541200330204114	-0.8357146956393587	0.0	0.505090179005333	-0.8196809436835831	0.0	0.5100802520365119	-0.5585317952594733	0.0	0.5820430949588168	-0.680592713126477	0.0	0.5280402431631145	-0.8013976118982299	0.0	0.5728871865964837	-0.8263762254754752	0.0	0.5643667321112381	-0.8225109327643624	0.0	0.5038539160404837	-0.8119427237638916	0.0	0.5892567197320925	-0.4072490903796162	0.0	0.6381126897080049	-0.338814765744275	0.0	0.6419762255043681	-0.3829138946981947	0.0	0.5875100478266736	-0.40990913980152	0.0	0.6830211637568737	-0.41526410697191896	0.0	0.7628109756927919	-0.3876297658520997	0.0	0.5831312648080264	-0.4120916132633968	0.0	0.677185770292608	-0.4198528174003759	0.0	0.7531920680931178	-0.3909516636320663	0.0
